# xmcd CD database file
#
# Track frame offsets:
#	150
#	15457
#	36807
#	50647
#	72382
#	85175
#	105872
#	125175
#	145650
#	158012
#	173417
#	196192
#	210855
#
# Disc length: 3048 seconds
#
# Revision: 6
# Processed by: cddbd v1.5.2PL0 Copyright (c) Steve Scherf et al.
# Submitted via: CDex 1.70beta3
#
DISCID=9f0be60d
DTITLE=Noon - Smilin'
DYEAR=2006
DGENRE=Jazz
TTITLE0=Smile
TTITLE1=Don't Let Me Be Lonely Tonight
TTITLE2=Love Letters
TTITLE3=500 Miles
TTITLE4=The Way You Look Tonight
TTITLE5=Black Orpheus
TTITLE6=Every Time We Say Goodbye
TTITLE7=How Long Has This Been Going On?
TTITLE8=I Could Write A Book
TTITLE9=Superstar
TTITLE10=You've Got A Friend
TTITLE11=Hallelujah I Love Him So
TTITLE12=涙そうそう
EXTD=YEAR: 2006
EXTT0=
EXTT1=
EXTT2=
EXTT3=
EXTT4=
EXTT5=
EXTT6=
EXTT7=
EXTT8=
EXTT9=
EXTT10=
EXTT11=
EXTT12=
PLAYORDER=
